{"title":"Rango.2011.DVDSCR.AC3.XViD-EP1C","uid":6426049,"size":742481251,"categoryP":"video","categoryS":"movies","magnet":"?xt=urn:btih:c84eee5dd9fb69d62f8026e0bbd5f5ff62d03c21&amp;dn=Rango.2011.DVDSCR.AC3.XViD-EP1C&amp;tr=udp%3A%2F%2Ftracker.openbittorrent.com%3A80&amp;tr=udp%3A%2F%2Fopen.demonii.com%3A1337&amp;tr=udp%3A%2F%2Ftracker.coppersurfer.tk%3A6969&amp;tr=udp%3A%2F%2Fexodus.desync.com%3A6969","seeders":1,"leechers":0,"uploader":"SAFCukO09","files":4,"time":1306476392,"description":"\n\n\n\n::::::::::::  EP1C Presents  ::::::::::::\n\n\n\n::File:: Rango.2011.DVDSCR.AC3.XViD-EP1C\n\n\n\n::Video Source:: 3LTON\n\n\n\n::Language:::::: English\n\n::IMDB:::::::::: http://www.imdb.com/title/tt1192628/\n\n\n\nRango is an ordinary chameleon who accidentally winds up in the town of\n\nDirt, a lawless outpost in the Wild West in desperate need of a new sheriff.\n\n\n\n::Specs:::::::::\n\n\n\nFormat                           : AVI\n\nFormat/Info                      : Audio Video Interleave\n\nFile size                        : 1.37 GiB\n\nDuration                         : 1h 56mn\n\nOverall bit rate                 : 1 685 Kbps\n\nWriting application              : VirtualDubMod 1.5.10.2 (build 2540/release)\n\nWriting library                  : VirtualDubMod build 2540/release\n\n\n\nVideo\n\nID                               : 0\n\nFormat                           : MPEG-4 Visual\n\nFormat profile                   : Advanced Simple@L5\n\nFormat settings, BVOP            : Yes\n\nFormat settings, QPel            : No\n\nFormat settings, GMC             : No warppoints\n\nFormat settings, Matrix          : Default (MPEG)\n\nMuxing mode                      : Packed bitstream\n\nCodec ID                         : XVID\n\nCodec ID/Hint                    : XviD\n\nDuration                         : 1h 56mn\n\nBit rate                         : 1 548 Kbps\n\nWidth                            : 720 pixels\n\nHeight                           : 304 pixels\n\nDisplay aspect ratio             : 2.35:1\n\nFrame rate                       : 25.000 fps\n\nColor space                      : YUV\n\nChroma subsampling               : 4:2:0\n\nBit depth                        : 8 bits\n\nScan type                        : Progressive\n\nBits/(Pixel*Frame)               : 0.283\n\nStream size                      : 1.26 GiB (92%)\n\nWriting library                  : XviD 58\n\n\n\nAudio\n\nID                               : 1\n\nFormat                           : MPEG Audio\n\nFormat version                   : Version 1\n\nFormat profile                   : Layer 3\n\nCodec ID                         : 55\n\nCodec ID/Hint                    : MP3\n\nDuration                         : 1h 56mn\n\nBit rate mode                    : Constant\n\nBit rate                         : 128 Kbps\n\nChannel(s)                       : 2 channels\n\nSampling rate                    : 44.1 KHz\n\nStream size                      : 107 MiB (8%)\n\nAlignment                        : Split accross interleaves\n\nInterleave, duration             : 40 ms (1.00 video frame)\n\nInterleave, preload duration     : 500 ms\n\n\n\n::NOTES:::::::::\n\nPresents Rango DVDSCR.\n\n\n\nEnjoy. //iNK\n\n\n\n:: Got something we might be interested in? contact us: &lt;a class=&quot;__cf_email__&quot; href=&quot;/cdn-cgi/l/email-protection&quot; data-cfemail=&quot;3e5b4e575d7e564b4d56535f575210535b&quot;&gt;[email&amp;#160;protected]&lt;/a&gt;&lt;script cf-hash='f9e31' type=&quot;text/javascript&quot;&gt;\n/* &lt;![CDATA[ */!function(){try{var t=&quot;currentScript&quot;in document?document.currentScript:function(){for(var t=document.getElementsByTagName(&quot;script&quot;),e=t.length;e--;)if(t[e].getAttribute(&quot;cf-hash&quot;))return t[e]}();if(t&amp;&amp;t.previousSibling){var e,r,n,i,c=t.previousSibling,a=c.getAttribute(&quot;data-cfemail&quot;);if(a){for(e=&quot;&quot;,r=parseInt(a.substr(0,2),16),n=2;a.length-n;n+=2)i=parseInt(a.substr(n,2),16)^r,e+=String.fromCharCode(i);e=document.createTextNode(e),c.parentNode.replaceChild(e,c)}}}catch(u){}}();/* ]]&gt; */&lt;/script&gt; ::\n\n\n\n::::::::::::::::::::::::::::::::  RESPECT  :::::::::::::::::::::::::::::::::\n\nIMAGiNE, Rx, FLAWL3SS, ViSiON, T0XiC, HiVE, bobwhite &amp; All Our Friends!\n\n\n\n                ::::::::::::::::  We Are  ::::::::::::::::  \n\n              :::::: Surpassing the usual or ordinary ::::::\n\n::::::::::::::::::    Heroic and impressive in quality    ::::::::::::::::::    \n\n::::::::::::::::::::::::::::::::   EP1C   ::::::::::::::::::::::::::::::::\n\n\n\n[img]http://noob.hu/2011/05/27/vlcsnap-2011-05-26-23h31m54s203_0.png[/img]\n[img]http://noob.hu/2011/05/27/vlcsnap-2011-05-26-23h44m00s17.png[/img]\n[img]http://noob.hu/2011/05/27/vlcsnap-2011-05-26-23h45m18s54.png[/img]\n\n[/center]","torrent":{"xt":"urn:btih:c84eee5dd9fb69d62f8026e0bbd5f5ff62d03c21","amp;dn":"Rango.2011.DVDSCR.AC3.XViD-EP1C","amp;tr":["udp%3A%2F%2Ftracker.openbittorrent.com%3A80","udp%3A%2F%2Fopen.demonii.com%3A1337","udp%3A%2F%2Ftracker.coppersurfer.tk%3A6969","udp%3A%2F%2Fexodus.desync.com%3A6969"],"infoHash":"c84eee5dd9fb69d62f8026e0bbd5f5ff62d03c21","infoHashBuffer":{"type":"Buffer","data":[200,78,238,93,217,251,105,214,47,128,38,224,187,213,245,255,98,208,60,33]},"announce":[],"urlList":[]}}